<?xml version="1.0" encoding="utf-8"?>
<!-- Generator: Adobe Illustrator 24.2.1, SVG Export Plug-In . SVG Version: 6.00 Build 0)  -->
<svg version="1.1"
	 id="svg3070" inkscape:version="0.48.0 r9654" sodipodi:docname="New document 4" xmlns:cc="http://creativecommons.org/ns#" xmlns:dc="http://purl.org/dc/elements/1.1/" xmlns:inkscape="http://www.inkscape.org/namespaces/inkscape" xmlns:rdf="http://www.w3.org/1999/02/22-rdf-syntax-ns#" xmlns:sodipodi="http://sodipodi.sourceforge.net/DTD/sodipodi-0.dtd" xmlns:svg="http://www.w3.org/2000/svg"
	 xmlns="http://www.w3.org/2000/svg" xmlns:xlink="http://www.w3.org/1999/xlink" x="0px" y="0px" viewBox="0 0 480 480"
	 style="enable-background:new 0 0 480 480;" xml:space="preserve">
<style type="text/css">
	.st0{fill:#FFFFFF;}
</style>
<g>
	<path class="st0" d="M444.5-1.5H35.5C15.9-1.5,0,14,0,33.1v413.8c0,19.1,15.9,34.6,35.5,34.6h409.1c19.6,0,35.5-15.5,35.5-34.6
		V33.1C480,14,464.1-1.5,444.5-1.5z"/>
	<path d="M444.5-1.5H35.5C15.9-1.5,0,14,0,33.1v413.8c0,19.1,15.9,34.6,35.5,34.6h409.1c19.6,0,35.5-15.5,35.5-34.6V33.1
		C480,14,464.1-1.5,444.5-1.5z M145.5,402.8H73V184.7h72.5V402.8z M109.3,154.9L109.3,154.9h-0.5c-24.3,0-40.1-16.7-40.1-37.7
		c0-21.4,16.2-37.7,41-37.7c24.8,0,40.1,16.3,40.5,37.7C150.3,138.2,134.5,154.9,109.3,154.9z M406.9,402.8h-72.5V286.1
		c0-29.3-10.5-49.3-36.7-49.3c-20,0-32,13.5-37.2,26.5c-1.9,4.7-2.4,11.2-2.4,17.7v121.8h-72.5c0,0,1-197.7,0-218.1h72.5v30.9
		c9.6-14.9,26.9-36,65.3-36c47.7,0,83.5,31.2,83.5,98.2V402.8z"/>
</g>
</svg>
